%TF.GenerationSoftware,KiCad,Pcbnew,10.0.1*%
%TF.CreationDate,2026-10-04T14:36:55-04:00*%
%TF.ProjectId,Osu!Pad,4f737521-5061-4642-9e6b-696361645f70,rev?*%
%TF.SameCoordinates,Original*%
%TF.FileFunction,Profile,NP*%
%FSLAX46Y46*%
G04 Gerber Fmt 4.6, Leading zero omitted, Abs format (unit mm)*
G04 Created by KiCad (PCBNEW 10.0.1) date 2026-10-04 14:36:55*
%MOMM*%
%LPD*%
G01*
G04 APERTURE LIST*
%ADD10C,0.150000*%
%TA.AperFunction,Profile*%
%ADD11C,0.050000*%
%TD*%
G04 APERTURE END LIST*
D10*
X133304819Y-91087380D02*
X133304819Y-91563570D01*
X133304819Y-91563570D02*
X133781009Y-91611189D01*
X133781009Y-91611189D02*
X133733390Y-91563570D01*
X133733390Y-91563570D02*
X133685771Y-91468332D01*
X133685771Y-91468332D02*
X133685771Y-91230237D01*
X133685771Y-91230237D02*
X133733390Y-91134999D01*
X133733390Y-91134999D02*
X133781009Y-91087380D01*
X133781009Y-91087380D02*
X133876247Y-91039761D01*
X133876247Y-91039761D02*
X134114342Y-91039761D01*
X134114342Y-91039761D02*
X134209580Y-91087380D01*
X134209580Y-91087380D02*
X134257200Y-91134999D01*
X134257200Y-91134999D02*
X134304819Y-91230237D01*
X134304819Y-91230237D02*
X134304819Y-91468332D01*
X134304819Y-91468332D02*
X134257200Y-91563570D01*
X134257200Y-91563570D02*
X134209580Y-91611189D01*
X133304819Y-90706427D02*
X133304819Y-90039761D01*
X133304819Y-90039761D02*
X134304819Y-90468332D01*
X134209580Y-89658808D02*
X134257200Y-89611189D01*
X134257200Y-89611189D02*
X134304819Y-89658808D01*
X134304819Y-89658808D02*
X134257200Y-89706427D01*
X134257200Y-89706427D02*
X134209580Y-89658808D01*
X134209580Y-89658808D02*
X134304819Y-89658808D01*
X133733390Y-89039761D02*
X133685771Y-89134999D01*
X133685771Y-89134999D02*
X133638152Y-89182618D01*
X133638152Y-89182618D02*
X133542914Y-89230237D01*
X133542914Y-89230237D02*
X133495295Y-89230237D01*
X133495295Y-89230237D02*
X133400057Y-89182618D01*
X133400057Y-89182618D02*
X133352438Y-89134999D01*
X133352438Y-89134999D02*
X133304819Y-89039761D01*
X133304819Y-89039761D02*
X133304819Y-88849285D01*
X133304819Y-88849285D02*
X133352438Y-88754047D01*
X133352438Y-88754047D02*
X133400057Y-88706428D01*
X133400057Y-88706428D02*
X133495295Y-88658809D01*
X133495295Y-88658809D02*
X133542914Y-88658809D01*
X133542914Y-88658809D02*
X133638152Y-88706428D01*
X133638152Y-88706428D02*
X133685771Y-88754047D01*
X133685771Y-88754047D02*
X133733390Y-88849285D01*
X133733390Y-88849285D02*
X133733390Y-89039761D01*
X133733390Y-89039761D02*
X133781009Y-89134999D01*
X133781009Y-89134999D02*
X133828628Y-89182618D01*
X133828628Y-89182618D02*
X133923866Y-89230237D01*
X133923866Y-89230237D02*
X134114342Y-89230237D01*
X134114342Y-89230237D02*
X134209580Y-89182618D01*
X134209580Y-89182618D02*
X134257200Y-89134999D01*
X134257200Y-89134999D02*
X134304819Y-89039761D01*
X134304819Y-89039761D02*
X134304819Y-88849285D01*
X134304819Y-88849285D02*
X134257200Y-88754047D01*
X134257200Y-88754047D02*
X134209580Y-88706428D01*
X134209580Y-88706428D02*
X134114342Y-88658809D01*
X134114342Y-88658809D02*
X133923866Y-88658809D01*
X133923866Y-88658809D02*
X133828628Y-88706428D01*
X133828628Y-88706428D02*
X133781009Y-88754047D01*
X133781009Y-88754047D02*
X133733390Y-88849285D01*
D11*
X127570000Y-114750000D02*
X135586420Y-114750000D01*
X135586420Y-65520000D02*
X127570000Y-65520000D01*
X135000000Y-114750000D02*
X135000000Y-65520000D01*
X135000000Y-114750000D02*
X134413579Y-113623496D01*
X135000000Y-114750000D02*
X135586421Y-113623496D01*
X135000000Y-65520000D02*
X135586421Y-66646504D01*
X135000000Y-65520000D02*
X134413579Y-66646504D01*
D10*
X116640238Y-117804819D02*
X116068810Y-117804819D01*
X116354524Y-117804819D02*
X116354524Y-116804819D01*
X116354524Y-116804819D02*
X116259286Y-116947676D01*
X116259286Y-116947676D02*
X116164048Y-117042914D01*
X116164048Y-117042914D02*
X116068810Y-117090533D01*
X117116429Y-117804819D02*
X117306905Y-117804819D01*
X117306905Y-117804819D02*
X117402143Y-117757200D01*
X117402143Y-117757200D02*
X117449762Y-117709580D01*
X117449762Y-117709580D02*
X117545000Y-117566723D01*
X117545000Y-117566723D02*
X117592619Y-117376247D01*
X117592619Y-117376247D02*
X117592619Y-116995295D01*
X117592619Y-116995295D02*
X117545000Y-116900057D01*
X117545000Y-116900057D02*
X117497381Y-116852438D01*
X117497381Y-116852438D02*
X117402143Y-116804819D01*
X117402143Y-116804819D02*
X117211667Y-116804819D01*
X117211667Y-116804819D02*
X117116429Y-116852438D01*
X117116429Y-116852438D02*
X117068810Y-116900057D01*
X117068810Y-116900057D02*
X117021191Y-116995295D01*
X117021191Y-116995295D02*
X117021191Y-117233390D01*
X117021191Y-117233390D02*
X117068810Y-117328628D01*
X117068810Y-117328628D02*
X117116429Y-117376247D01*
X117116429Y-117376247D02*
X117211667Y-117423866D01*
X117211667Y-117423866D02*
X117402143Y-117423866D01*
X117402143Y-117423866D02*
X117497381Y-117376247D01*
X117497381Y-117376247D02*
X117545000Y-117328628D01*
X117545000Y-117328628D02*
X117592619Y-117233390D01*
X118021191Y-117709580D02*
X118068810Y-117757200D01*
X118068810Y-117757200D02*
X118021191Y-117804819D01*
X118021191Y-117804819D02*
X117973572Y-117757200D01*
X117973572Y-117757200D02*
X118021191Y-117709580D01*
X118021191Y-117709580D02*
X118021191Y-117804819D01*
X118925952Y-117138152D02*
X118925952Y-117804819D01*
X118687857Y-116757200D02*
X118449762Y-117471485D01*
X118449762Y-117471485D02*
X119068809Y-117471485D01*
D11*
X108020000Y-115250000D02*
X108020000Y-119086420D01*
X127070000Y-119086420D02*
X127070000Y-115250000D01*
X108020000Y-118500000D02*
X127070000Y-118500000D01*
X108020000Y-118500000D02*
X109146504Y-117913579D01*
X108020000Y-118500000D02*
X109146504Y-119086421D01*
X127070000Y-118500000D02*
X125943496Y-119086421D01*
X127070000Y-118500000D02*
X125943496Y-117913579D01*
M02*
